<?xml version="1.0" encoding="utf-8"?>
<!-- Generator: Adobe Illustrator 22.1.0, SVG Export Plug-In . SVG Version: 6.00 Build 0)  -->
<svg version="1.1" id="Capa_1" xmlns="http://www.w3.org/2000/svg" xmlns:xlink="http://www.w3.org/1999/xlink" x="0px" y="0px"
	 viewBox="0 0 124.1 45.2" style="enable-background:new 0 0 124.1 45.2;" xml:space="preserve">
<g>
	<path d="M0,0.1L0,0.1L14.4,0c7.9,0,11.8,2.9,11.8,8.8c0,6.7-5,9.8-13.4,9.8h-2.1v11.2l4.2,2.7v0.1H0v-0.1l3.1-2.7V2.8L0,0.1z
		 M10.7,1.1v16.4H12c3.8,0,6.6-2.9,6.6-8.4c0-5.7-2.4-8-6.9-8H10.7z"/>
	<path d="M42.5,32.5L42.5,32.5l-14.1,0.1v-0.1l2.7-2.4V13.4l-3.4-2.4V11l10.5-3.3l-0.1,7c1.8-4.3,3.6-6.6,6.4-6.6
		c2.1,0,3.4,1.3,3.4,3.7c0,2.6-1.5,4.5-3.9,5.1h0c-0.1-2.2-1-3.5-2.6-3.5c-1.2,0-2.2,0.5-2.9,1.5v14.9L42.5,32.5z"/>
	<path d="M62.4,27.8c-1.5,3.2-3.7,5.5-7.5,5.5c-3.9,0-6-2.7-6-6.3c0-4.7,2.8-6.9,9.5-7.4l3.7-0.2v-1.7c0-3.4-1.3-4.7-4.5-4.7
		c-2.6,0-5.4,1.1-7.2,2.9l0-0.1c1.2-4.8,4.8-7.7,9.9-7.7c6,0,9.1,3,9.1,8.9v9.9c0,2.2,0.9,2.9,3.5,2.9V30c-0.8,1.8-2.8,3.3-5.6,3.3
		c-3.6,0-5-1.7-4.9-4.4L62.4,27.8z M58.8,29c1.4,0,2.5-0.6,3.4-1.4v-7.5l-2.3,0.3c-2.6,0.4-3.9,2.1-3.9,5.2C55.9,27.9,57,29,58.8,29
		z"/>
	<path d="M83.9,45.2c-6.5,0-9.9-2-9.9-5.4c0-2.8,2.4-4.5,6.9-5.2c-3.8-0.3-5.8-2.1-5.8-4.8c0-2.5,1.9-4.4,5.4-5.3
		c-3.8-1-5.4-3.7-5.4-7.6c0-5.3,3.7-8.6,10.9-8.6c3,0,5.5,0.6,7.1,1.6L99,4v6.3h-5.2c1.8,1.4,2.7,3.6,2.7,6.3
		c0,5.3-3.6,8.5-10.7,8.5c-1.8,0-3.4-0.2-4.7-0.4c-0.6,0.4-0.8,1.2-0.8,2.1c0,1.1,0.9,1.8,3.1,2l7.2,0.7c5.6,0.5,7.7,2.3,7.7,5.8
		C98.4,40.7,92.8,45.2,83.9,45.2z M85.8,44.1c1.9,0,3.5-0.6,4.8-1.8c1.3-1.2,2-2.7,2-4.4c0-1.6-0.9-2.3-4.6-2.7l-6.4-0.6
		c-1,1-1.5,2.6-1.5,4.3C80.1,42.2,82.2,44.1,85.8,44.1z M85.8,24.2c2,0,3.5-2.1,3.5-7.5c0-5.9-1.2-7.7-3.4-7.7c-2,0-3.6,2-3.6,7.6
		C82.4,22.2,83.7,24.2,85.8,24.2z"/>
	<path d="M113.6,27.8c-1.5,3.2-3.7,5.5-7.5,5.5c-3.9,0-6-2.7-6-6.3c0-4.7,2.8-6.9,9.5-7.4l3.7-0.2v-1.7c0-3.4-1.3-4.7-4.5-4.7
		c-2.6,0-5.4,1.1-7.2,2.9l0-0.1c1.2-4.8,4.8-7.7,9.9-7.7c6,0,9.1,3,9.1,8.9v9.9c0,2.2,0.9,2.9,3.5,2.9V30c-0.8,1.8-2.8,3.3-5.6,3.3
		c-3.6,0-5-1.7-4.9-4.4L113.6,27.8z M110,29c1.4,0,2.5-0.6,3.4-1.4v-7.5l-2.3,0.3c-2.6,0.4-3.9,2.1-3.9,5.2
		C107.1,27.9,108.2,29,110,29z"/>
</g>
</svg>
